<mxfile host="app.diagrams.net" modified="2022-08-25T17:56:05.372Z" agent="5.0 (Windows NT 10.0; Win64; x64) AppleWebKit/537.36 (KHTML, like Gecko) Chrome/104.0.5112.102 Safari/537.36 Edg/104.0.1293.63" etag="Zd8-UFGJ2Kj3bgeQUO9g" version="20.2.7" type="github">
  <diagram id="1xV9rFDHpbAzDHwY5ADk" name="Page-1">
    <mxGraphModel dx="868" dy="482" grid="1" gridSize="10" guides="1" tooltips="1" connect="1" arrows="1" fold="1" page="1" pageScale="1" pageWidth="850" pageHeight="1100" math="0" shadow="0">
      <root>
        <mxCell id="0" />
        <mxCell id="1" parent="0" />
        <mxCell id="6MNwf-qwvuT5a7XczWDS-1" value="" style="rounded=0;whiteSpace=wrap;html=1;" parent="1" vertex="1">
          <mxGeometry x="340" y="10" width="160" height="420" as="geometry" />
        </mxCell>
        <mxCell id="6MNwf-qwvuT5a7XczWDS-2" value="" style="rounded=0;whiteSpace=wrap;html=1;" parent="1" vertex="1">
          <mxGeometry x="530" y="60" width="60" height="40" as="geometry" />
        </mxCell>
        <mxCell id="6MNwf-qwvuT5a7XczWDS-3" value="" style="ellipse;whiteSpace=wrap;html=1;" parent="1" vertex="1">
          <mxGeometry x="360" y="40" width="120" height="80" as="geometry" />
        </mxCell>
        <mxCell id="6MNwf-qwvuT5a7XczWDS-5" value="" style="ellipse;whiteSpace=wrap;html=1;" parent="1" vertex="1">
          <mxGeometry x="360" y="280" width="120" height="80" as="geometry" />
        </mxCell>
        <mxCell id="6MNwf-qwvuT5a7XczWDS-6" value="" style="ellipse;whiteSpace=wrap;html=1;" parent="1" vertex="1">
          <mxGeometry x="365" y="160" width="120" height="80" as="geometry" />
        </mxCell>
        <mxCell id="6MNwf-qwvuT5a7XczWDS-7" value="&lt;font style=&quot;font-size: 18px;&quot;&gt;Salary&lt;/font&gt;" style="text;html=1;strokeColor=none;fillColor=none;align=center;verticalAlign=middle;whiteSpace=wrap;rounded=0;" parent="1" vertex="1">
          <mxGeometry x="390" y="65" width="60" height="30" as="geometry" />
        </mxCell>
        <mxCell id="6MNwf-qwvuT5a7XczWDS-9" value="&lt;font style=&quot;font-size: 18px;&quot;&gt;Bonus&lt;/font&gt;" style="text;html=1;strokeColor=none;fillColor=none;align=center;verticalAlign=middle;whiteSpace=wrap;rounded=0;" parent="1" vertex="1">
          <mxGeometry x="395" y="189" width="60" height="30" as="geometry" />
        </mxCell>
        <mxCell id="6MNwf-qwvuT5a7XczWDS-10" value="&lt;font style=&quot;font-size: 18px;&quot;&gt;Insurance&lt;/font&gt;" style="text;html=1;strokeColor=none;fillColor=none;align=center;verticalAlign=middle;whiteSpace=wrap;rounded=0;" parent="1" vertex="1">
          <mxGeometry x="390" y="305" width="60" height="30" as="geometry" />
        </mxCell>
        <mxCell id="6MNwf-qwvuT5a7XczWDS-12" value="" style="endArrow=none;html=1;rounded=0;" parent="1" edge="1">
          <mxGeometry width="50" height="50" relative="1" as="geometry">
            <mxPoint x="250" y="76" as="sourcePoint" />
            <mxPoint x="380" y="290" as="targetPoint" />
          </mxGeometry>
        </mxCell>
        <mxCell id="6MNwf-qwvuT5a7XczWDS-14" value="" style="endArrow=none;html=1;rounded=0;" parent="1" edge="1">
          <mxGeometry width="50" height="50" relative="1" as="geometry">
            <mxPoint x="250" y="75" as="sourcePoint" />
            <mxPoint x="360" y="74.99999999999989" as="targetPoint" />
          </mxGeometry>
        </mxCell>
        <mxCell id="6MNwf-qwvuT5a7XczWDS-15" value="Employee" style="shape=umlActor;verticalLabelPosition=bottom;verticalAlign=top;html=1;outlineConnect=0;" parent="1" vertex="1">
          <mxGeometry x="210" y="64" width="30" height="60" as="geometry" />
        </mxCell>
        <mxCell id="6MNwf-qwvuT5a7XczWDS-16" value="Supervisor" style="shape=umlActor;verticalLabelPosition=bottom;verticalAlign=top;html=1;outlineConnect=0;" parent="1" vertex="1">
          <mxGeometry x="210" y="174" width="30" height="60" as="geometry" />
        </mxCell>
        <mxCell id="6MNwf-qwvuT5a7XczWDS-17" value="HR" style="text;html=1;strokeColor=none;fillColor=none;align=center;verticalAlign=middle;whiteSpace=wrap;rounded=0;" parent="1" vertex="1">
          <mxGeometry x="530" y="65" width="60" height="30" as="geometry" />
        </mxCell>
        <mxCell id="6MNwf-qwvuT5a7XczWDS-18" value="" style="endArrow=none;html=1;rounded=0;" parent="1" target="6MNwf-qwvuT5a7XczWDS-5" edge="1">
          <mxGeometry width="50" height="50" relative="1" as="geometry">
            <mxPoint x="254" y="194.9999999999999" as="sourcePoint" />
            <mxPoint x="364" y="450" as="targetPoint" />
          </mxGeometry>
        </mxCell>
        <mxCell id="6MNwf-qwvuT5a7XczWDS-20" value="" style="endArrow=none;html=1;rounded=0;entryX=-0.003;entryY=0.436;entryDx=0;entryDy=0;entryPerimeter=0;" parent="1" target="6MNwf-qwvuT5a7XczWDS-3" edge="1">
          <mxGeometry width="50" height="50" relative="1" as="geometry">
            <mxPoint x="255" y="194.9999999999999" as="sourcePoint" />
            <mxPoint x="360" y="80" as="targetPoint" />
          </mxGeometry>
        </mxCell>
        <mxCell id="6MNwf-qwvuT5a7XczWDS-22" value="" style="endArrow=none;html=1;rounded=0;entryX=0;entryY=0.75;entryDx=0;entryDy=0;exitX=1;exitY=0.5;exitDx=0;exitDy=0;" parent="1" source="6MNwf-qwvuT5a7XczWDS-6" target="6MNwf-qwvuT5a7XczWDS-17" edge="1">
          <mxGeometry width="50" height="50" relative="1" as="geometry">
            <mxPoint x="480" y="180" as="sourcePoint" />
            <mxPoint x="529" y="121" as="targetPoint" />
          </mxGeometry>
        </mxCell>
        <mxCell id="6MNwf-qwvuT5a7XczWDS-25" value="" style="rounded=0;whiteSpace=wrap;html=1;" parent="1" vertex="1">
          <mxGeometry x="530" y="207" width="60" height="40" as="geometry" />
        </mxCell>
        <mxCell id="6MNwf-qwvuT5a7XczWDS-26" value="System" style="text;html=1;strokeColor=none;fillColor=none;align=center;verticalAlign=middle;whiteSpace=wrap;rounded=0;" parent="1" vertex="1">
          <mxGeometry x="530" y="212" width="60" height="30" as="geometry" />
        </mxCell>
        <mxCell id="6MNwf-qwvuT5a7XczWDS-28" value="" style="endArrow=none;html=1;rounded=0;exitX=1;exitY=0.5;exitDx=0;exitDy=0;" parent="1" source="6MNwf-qwvuT5a7XczWDS-6" edge="1">
          <mxGeometry width="50" height="50" relative="1" as="geometry">
            <mxPoint x="480" y="179.9999999999999" as="sourcePoint" />
            <mxPoint x="530" y="219.9999999999999" as="targetPoint" />
          </mxGeometry>
        </mxCell>
        <mxCell id="6MNwf-qwvuT5a7XczWDS-30" value="" style="endArrow=none;html=1;rounded=0;exitX=1.003;exitY=0.661;exitDx=0;exitDy=0;exitPerimeter=0;" parent="1" edge="1">
          <mxGeometry width="50" height="50" relative="1" as="geometry">
            <mxPoint x="479.3600000000001" y="88.88" as="sourcePoint" />
            <mxPoint x="530" y="219.9999999999999" as="targetPoint" />
          </mxGeometry>
        </mxCell>
        <mxCell id="6MNwf-qwvuT5a7XczWDS-31" value="" style="endArrow=none;html=1;rounded=0;" parent="1" edge="1">
          <mxGeometry width="50" height="50" relative="1" as="geometry">
            <mxPoint x="480" y="312" as="sourcePoint" />
            <mxPoint x="530" y="85" as="targetPoint" />
          </mxGeometry>
        </mxCell>
        <mxCell id="6MNwf-qwvuT5a7XczWDS-32" value="" style="rounded=0;whiteSpace=wrap;html=1;" parent="1" vertex="1">
          <mxGeometry x="280" y="440" width="280" height="60" as="geometry" />
        </mxCell>
        <mxCell id="6MNwf-qwvuT5a7XczWDS-33" value="&lt;font style=&quot;font-size: 18px;&quot;&gt;Level: 1.2&amp;nbsp;&lt;span style=&quot;white-space: pre;&quot;&gt;	&lt;/span&gt;Payroll&lt;/font&gt;" style="text;html=1;strokeColor=none;fillColor=none;align=center;verticalAlign=middle;whiteSpace=wrap;rounded=0;" parent="1" vertex="1">
          <mxGeometry x="300" y="455" width="240" height="30" as="geometry" />
        </mxCell>
        <mxCell id="6MNwf-qwvuT5a7XczWDS-34" value="" style="rounded=0;whiteSpace=wrap;html=1;" parent="1" vertex="1">
          <mxGeometry x="534" y="312" width="60" height="40" as="geometry" />
        </mxCell>
        <mxCell id="6MNwf-qwvuT5a7XczWDS-35" value="Payment" style="text;html=1;strokeColor=none;fillColor=none;align=center;verticalAlign=middle;whiteSpace=wrap;rounded=0;" parent="1" vertex="1">
          <mxGeometry x="534" y="317" width="60" height="30" as="geometry" />
        </mxCell>
        <mxCell id="6MNwf-qwvuT5a7XczWDS-36" value="" style="endArrow=none;html=1;rounded=0;fontSize=18;exitX=0;exitY=0.25;exitDx=0;exitDy=0;" parent="1" edge="1">
          <mxGeometry width="50" height="50" relative="1" as="geometry">
            <mxPoint x="532.9999999999998" y="323.5" as="sourcePoint" />
            <mxPoint x="479" y="89" as="targetPoint" />
          </mxGeometry>
        </mxCell>
        <mxCell id="6MNwf-qwvuT5a7XczWDS-37" value="" style="endArrow=none;html=1;rounded=0;fontSize=18;entryX=1;entryY=0.5;entryDx=0;entryDy=0;" parent="1" target="6MNwf-qwvuT5a7XczWDS-6" edge="1">
          <mxGeometry width="50" height="50" relative="1" as="geometry">
            <mxPoint x="532.9999999999998" y="324" as="sourcePoint" />
            <mxPoint x="480.5999999999999" y="185.60000000000002" as="targetPoint" />
          </mxGeometry>
        </mxCell>
        <mxCell id="6MNwf-qwvuT5a7XczWDS-39" value="" style="endArrow=none;html=1;rounded=0;fontSize=18;exitX=0.995;exitY=0.42;exitDx=0;exitDy=0;exitPerimeter=0;" parent="1" source="6MNwf-qwvuT5a7XczWDS-5" edge="1">
          <mxGeometry width="50" height="50" relative="1" as="geometry">
            <mxPoint x="484" y="373" as="sourcePoint" />
            <mxPoint x="534" y="323" as="targetPoint" />
          </mxGeometry>
        </mxCell>
      </root>
    </mxGraphModel>
  </diagram>
</mxfile>
